<svg width="100" height="101" viewBox="0 0 100 101" fill="none" xmlns="http://www.w3.org/2000/svg">
    <path fill-rule="evenodd" clip-rule="evenodd" d="M89.8206 52.8474H81.7561C80.8772 52.8474 80.1604 52.1306 80.1604 51.2517V27.4822L75.5628 27.6326C74.8538 27.656 74.471 26.8142 74.9514 26.2927L84.6253 15.8552C85.2561 15.1736 86.3186 15.1697 86.9553 15.8455L96.6526 26.1365C97.1331 26.6462 96.7717 27.4802 96.0725 27.4802H91.4124V51.2498C91.4124 52.1287 90.6956 52.8455 89.8167 52.8455L89.8206 52.8474ZM43.3596 3.82008C40.7483 3.54859 38.1018 3.55836 35.4924 3.84938C33.596 4.06031 32.1467 5.54664 31.9866 7.44899L31.5393 12.7224C31.2952 15.5974 27.9338 17.0056 25.7131 15.1619L21.6428 11.7849C20.1741 10.5662 18.0999 10.5545 16.6194 11.7576C14.5764 13.4158 12.7171 15.2908 11.0764 17.3455C9.88697 18.8357 9.91432 20.9099 11.1448 22.3689L14.5549 26.4099C16.4163 28.615 15.0335 31.988 12.1604 32.2556L6.89283 32.7459C4.99244 32.9216 3.51783 34.3806 3.32252 36.2791C3.05104 38.8904 3.0608 41.5388 3.35182 44.1463C3.56275 46.0427 5.04908 47.492 6.95143 47.6521L12.2249 48.0994C15.0999 48.3435 16.5081 51.7048 14.6663 53.9256L11.2893 57.9959C10.0706 59.4646 10.0588 61.5388 11.262 63.0193C12.9202 65.0623 14.7952 66.9216 16.8499 68.5623C18.3401 69.7517 20.4143 69.7244 21.8733 68.4939L25.9143 65.0838C28.1194 63.2224 31.4924 64.6052 31.76 67.4783L32.2503 72.7459C32.426 74.6463 33.885 76.1209 35.7835 76.3162C38.3948 76.5877 41.0432 76.5759 43.6506 76.2869C45.5471 76.0759 46.9963 74.5896 47.1565 72.6873L47.6038 67.4138C47.8479 64.5388 51.2092 63.1306 53.4299 64.9744L56.2835 67.3416C59.6506 65.2537 63.4905 63.8591 67.596 63.367C67.7542 63.1756 67.9104 62.9841 68.0667 62.7908C69.2561 61.3005 69.2288 59.2263 67.9983 57.7673L64.5881 53.7263C62.7268 51.5213 64.1096 48.1482 66.9827 47.8806L72.2503 47.3904C74.1506 47.2146 75.6253 45.7556 75.8206 43.8572C76.092 41.2459 76.0803 38.5955 75.7913 35.99C75.5803 34.0935 74.094 32.6443 72.1917 32.4841L66.9182 32.0369C64.0432 31.7927 62.635 28.4314 64.4788 26.2107L67.8557 22.1404C69.0745 20.6716 69.0862 18.5974 67.8831 17.117C66.2249 15.074 64.3499 13.2146 62.2952 11.574C60.8049 10.3845 58.7307 10.4119 57.2717 11.6423L53.2307 15.0525C51.0256 16.9138 47.6526 15.531 47.385 12.658L46.8948 7.39039C46.719 5.49 45.26 4.01539 43.3616 3.82008H43.3596ZM52.8362 39.0955C53.3752 39.0955 53.8127 39.533 53.8127 40.072C53.8127 40.6111 53.3752 41.0486 52.8362 41.0486H52.301C51.762 41.0486 51.3245 40.6111 51.3245 40.072C51.3245 39.533 51.762 39.0955 52.301 39.0955H52.8362ZM48.26 29.9998C48.6409 29.6189 49.26 29.6189 49.6409 29.9998C50.0217 30.3806 50.0217 30.9998 49.6409 31.3806L49.262 31.7595C48.8811 32.1404 48.262 32.1404 47.8811 31.7595C47.5003 31.3787 47.5003 30.7595 47.8811 30.3787L48.26 29.9998ZM38.592 26.8045C38.592 26.2654 39.0295 25.8279 39.5686 25.8279C40.1077 25.8279 40.5452 26.2654 40.5452 26.8045V27.3396C40.5452 27.8787 40.1077 28.3162 39.5686 28.3162C39.0295 28.3162 38.592 27.8787 38.592 27.3396V26.8045ZM29.5003 31.3787C29.1194 30.9978 29.1194 30.3787 29.5003 29.9978C29.8811 29.617 30.5003 29.617 30.8811 29.9978L31.2581 30.3748C31.6389 30.7556 31.6389 31.3748 31.2581 31.7556C30.8772 32.1365 30.2581 32.1365 29.8772 31.7556L29.5003 31.3787ZM26.3069 41.0427C25.7678 41.0427 25.3303 40.6052 25.3303 40.0662C25.3303 39.5271 25.7678 39.0896 26.3069 39.0896H26.842C27.3811 39.0896 27.8186 39.5271 27.8186 40.0662C27.8186 40.6052 27.3811 41.0427 26.842 41.0427H26.3069ZM30.8811 50.1345C30.5003 50.5154 29.8811 50.5154 29.5003 50.1345C29.1194 49.7537 29.1194 49.1345 29.5003 48.7537L29.8792 48.3748C30.26 47.9939 30.8792 47.9939 31.26 48.3748C31.6409 48.7556 31.6409 49.3748 31.26 49.7556L30.8811 50.1345ZM40.5452 53.3357C40.5452 53.8748 40.1077 54.3123 39.5686 54.3123C39.0295 54.3123 38.592 53.8748 38.592 53.3357V52.8005C38.592 52.2615 39.0295 51.824 39.5686 51.824C40.1077 51.824 40.5452 52.2615 40.5452 52.8005V53.3357ZM49.6409 48.7595C50.0217 49.1404 50.0217 49.7595 49.6409 50.1404C49.26 50.5213 48.6409 50.5213 48.26 50.1404L47.8811 49.7615C47.5003 49.3806 47.5003 48.7615 47.8811 48.3806C48.262 47.9998 48.8811 47.9998 49.262 48.3806L49.6409 48.7595ZM39.5686 22.4158C44.4417 22.4158 48.8538 24.3904 52.0491 27.5857C55.2424 30.7791 57.219 35.1912 57.219 40.0662C57.219 44.9412 55.2444 49.3513 52.0491 52.5466C48.8557 55.74 44.4436 57.7166 39.5686 57.7166C34.6936 57.7166 30.2835 55.742 27.0881 52.5466C23.8948 49.3533 21.9182 44.9412 21.9182 40.0662C21.9182 35.1912 23.8928 30.781 27.0881 27.5857C30.2815 24.3923 34.6936 22.4158 39.5686 22.4158ZM50.6682 28.9666C53.5081 31.8064 55.2659 35.7302 55.2659 40.0662C55.2659 44.4021 53.5081 48.324 50.6682 51.1658C47.8284 54.0056 43.9045 55.7634 39.5686 55.7634C35.2327 55.7634 31.3108 54.0056 28.469 51.1658C25.6292 48.3259 23.8713 44.4021 23.8713 40.0662C23.8713 35.7302 25.6292 31.8084 28.469 28.9666C31.3088 26.1267 35.2327 24.3689 39.5686 24.3689C43.9045 24.3689 47.8264 26.1248 50.6682 28.9666ZM39.5686 17.5252C45.7932 17.5252 51.428 20.0486 55.5081 24.1267C59.5881 28.2068 62.1096 33.8416 62.1096 40.0662C62.1096 46.2908 59.5862 51.9256 55.5081 56.0056C51.4299 60.0857 45.7932 62.6072 39.5686 62.6072C33.344 62.6072 27.7092 60.0838 23.6292 56.0056C19.5491 51.9256 17.0276 46.2908 17.0276 40.0662C17.0276 33.8416 19.551 28.2068 23.6292 24.1267C27.7092 20.0466 33.344 17.5252 39.5686 17.5252ZM54.1272 25.5076C57.8518 29.2322 60.1565 34.3806 60.1565 40.0662C60.1565 45.7517 57.8518 50.8982 54.1272 54.6248C50.4006 58.3513 45.2542 60.6541 39.5686 60.6541C33.8831 60.6541 28.7366 58.3494 25.01 54.6248C21.2835 50.9002 18.9807 45.7517 18.9807 40.0662C18.9807 34.3806 21.2854 29.2341 25.01 25.5076C28.7366 21.781 33.8831 19.4783 39.5686 19.4783C45.2542 19.4783 50.4006 21.783 54.1272 25.5076ZM70.9182 65.117C85.1936 65.117 96.8753 76.7986 96.8753 91.074V95.1287C96.8753 96.3631 95.8674 97.3709 94.6331 97.3709H47.2053C45.971 97.3709 44.9631 96.3631 44.9631 95.1287V91.074C44.9631 76.7986 56.6428 65.117 70.9202 65.117H70.9182ZM73.6682 89.7048L81.4299 81.9431C81.8108 81.5623 81.8108 80.9431 81.4299 80.5623C81.0491 80.1814 80.4299 80.1814 80.0491 80.5623L72.2874 88.324C71.137 87.7517 69.7034 87.9451 68.7463 88.9021C67.9846 89.6638 67.7073 90.7263 67.9124 91.7068H50.6253V91.074C50.6253 89.5994 50.7854 88.158 51.0881 86.7713L53.2053 87.3377C53.7249 87.4763 54.26 87.1677 54.3987 86.6463C54.5374 86.1248 54.2288 85.5916 53.7073 85.4529L51.596 84.8865C52.4963 82.1013 53.9846 79.574 55.9143 77.4529L57.4436 78.9822C57.8245 79.363 58.4436 79.363 58.8245 78.9822C59.2053 78.6013 59.2053 77.9822 58.8245 77.6013L57.2952 76.072C59.4163 74.1423 61.9456 72.6541 64.7288 71.7537L65.2952 73.865C65.4338 74.3845 65.969 74.6951 66.4885 74.5564C67.0081 74.4177 67.3186 73.8826 67.1799 73.3631L66.6135 71.2459C68.0022 70.9431 69.4417 70.783 70.9163 70.783C72.3909 70.783 73.8323 70.9431 75.219 71.2459L74.6526 73.3631C74.5139 73.8826 74.8225 74.4177 75.342 74.5564C75.8616 74.6951 76.3967 74.3865 76.5354 73.865L77.1018 71.7537C79.887 72.6541 82.4143 74.1423 84.5354 76.072L83.0061 77.6013C82.6252 77.9822 82.6252 78.6013 83.0061 78.9822C83.387 79.363 84.0061 79.363 84.387 78.9822L85.9163 77.4529C87.846 79.574 89.3342 82.1033 90.2346 84.8865L88.1233 85.4529C87.6038 85.5916 87.2932 86.1267 87.4319 86.6463C87.5706 87.1658 88.1057 87.4763 88.6253 87.3357L90.7424 86.7693C91.0452 88.158 91.2053 89.5974 91.2053 91.072V91.7048H73.9182C74.0588 91.0349 73.9729 90.3259 73.6624 89.7029L73.6682 89.7048ZM72.5745 93.6599C71.5686 94.3064 70.2678 94.3064 69.26 93.6599H49.6467C49.1077 93.6599 48.6702 93.2224 48.6702 92.6834V91.074C48.6702 84.9607 51.1741 79.3982 55.2073 75.365C59.2405 71.3318 64.801 68.8279 70.9163 68.8279C77.0315 68.8279 82.592 71.3318 86.6252 75.365C90.6584 79.3982 93.1624 84.9587 93.1624 91.074V92.6834C93.1624 93.2224 92.7249 93.6599 92.1858 93.6599H72.5725H72.5745ZM38.594 38.238V30.531C38.594 29.992 39.0315 29.5545 39.5706 29.5545C40.1096 29.5545 40.5471 29.992 40.5471 30.531V38.238C41.2014 38.5877 41.6467 39.2771 41.6467 40.0701C41.6467 41.2166 40.717 42.1462 39.5706 42.1462C39.3596 42.1462 39.1565 42.115 38.9651 42.0564L34.3069 46.7146C33.926 47.0955 33.3069 47.0955 32.926 46.7146C32.5452 46.3337 32.5452 45.7146 32.926 45.3338L37.5842 40.6755C37.5256 40.4841 37.4944 40.281 37.4944 40.0701C37.4944 39.2771 37.9397 38.5877 38.594 38.238Z" fill="white"/>
</svg>
