<svg width="100" height="100" viewBox="0 0 100 100" fill="none" xmlns="http://www.w3.org/2000/svg">
  <path
    fill-rule="evenodd"
    clip-rule="evenodd"
    d="M27.7442 29.3904C27.3372 30.0246 26.4931 30.2085 25.8591 29.8015C25.2251 29.3945 25.0409 28.5503 25.4479 27.9164C28.7185 22.8207 33.302 18.6888 38.7306 15.9722C39.403 15.6359 40.2208 15.9085 40.5571 16.581C40.8933 17.2535 40.6208 18.0712 39.9483 18.4076C34.9847 20.8912 30.7409 24.7205 27.7442 29.3904ZM36.8216 71.9001C37.4499 72.313 37.6243 73.1572 37.2114 73.7853C36.7985 74.4136 35.9544 74.588 35.3263 74.1751C30.379 70.9236 26.3645 66.4353 23.7069 61.1335C23.3706 60.4611 23.6433 59.6433 24.3157 59.307C24.9882 58.9708 25.806 59.2433 26.1421 59.9158C28.5649 64.7492 32.3095 68.9349 36.8216 71.9001ZM81.6579 59.3861C81.9823 58.7078 82.7954 58.4208 83.4737 58.7453C84.152 59.0697 84.439 59.8828 84.1145 60.5611C81.447 66.1349 77.2644 70.8929 72.096 74.2542C71.4647 74.6642 70.6208 74.4849 70.2108 73.8537C69.8009 73.2224 69.9802 72.3785 70.6114 71.9685C75.3622 68.8785 79.2075 64.5025 81.6579 59.3861ZM65.3331 17.3898C64.6341 17.1095 64.2946 16.3158 64.5747 15.6167C64.855 14.9177 65.6487 14.5783 66.3478 14.8583C71.3804 16.8828 75.9186 20.1763 79.4116 24.2962C79.8983 24.8714 79.8265 25.7322 79.2515 26.2189C78.6763 26.7056 77.8155 26.6337 77.3288 26.0587C74.1007 22.2511 69.9753 19.2636 65.3331 17.3898ZM88.3993 31.9607C87.8185 31.7199 87.2216 31.5314 86.6147 31.4009C85.9333 31.3234 85.404 30.7449 85.404 30.0427V29.1326H83.4204L83.4149 30.0429C83.4155 30.6914 82.956 31.2509 82.3202 31.3781C81.1813 31.6076 79.687 32.1835 78.7351 32.8513C78.1995 33.2558 77.4341 33.214 76.946 32.7259L76.3013 32.0812L74.8983 33.4841L75.5411 34.1306C75.9997 34.5884 76.0714 35.3083 75.7138 35.8484C75.094 36.7843 74.3978 38.299 74.2183 39.3925C74.1405 40.074 73.5622 40.6033 72.8601 40.6033H71.9497V42.5869L72.8603 42.5923C73.5087 42.5917 74.0683 43.0513 74.1954 43.6871C74.4261 44.8318 75.0026 46.3228 75.6686 47.2718C76.0731 47.8074 76.0315 48.5728 75.5433 49.0609L74.8983 49.7058L76.3013 51.1087L76.9481 50.4656C77.406 50.0068 78.1259 49.9353 78.6659 50.2929C79.6015 50.9123 81.1167 51.6093 82.2095 51.7886C82.8909 51.8662 83.4202 52.4447 83.4202 53.1468V54.0574H85.4038L85.4093 53.147C85.4087 52.4984 85.8683 51.939 86.504 51.8119C87.6493 51.5812 89.1395 51.0048 90.089 50.3388C90.6245 49.9343 91.3899 49.9761 91.878 50.4642L92.5228 51.1089L93.9257 49.706L93.2829 49.0595C92.8241 48.6017 92.7526 47.8818 93.1101 47.3417C93.7296 46.4062 94.4263 44.8908 94.6056 43.7978C94.6831 43.1164 95.2616 42.5871 95.9638 42.5871H96.8741V40.6035L95.9638 40.598C95.3153 40.5986 94.7558 40.139 94.6286 39.5033C94.3979 38.3582 93.8216 36.8677 93.1556 35.9183C92.7511 35.3828 92.7929 34.6173 93.281 34.1292L93.9257 33.4845L92.5228 32.0816L91.8763 32.7244C91.4185 33.183 90.6985 33.2546 90.1585 32.897C89.6085 32.532 89.0198 32.2177 88.3993 31.9607ZM87.3599 38.6468C88.9876 40.2746 88.9876 42.9146 87.3599 44.5421C84.7413 47.1607 80.2436 45.2976 80.2436 41.5945C80.2436 37.8914 84.7411 36.0283 87.3599 38.6468ZM84.4122 34.6917C88.2241 34.6917 91.3149 37.7826 91.3149 41.5947C91.3149 45.4066 88.2241 48.4974 84.4122 48.4974C80.6003 48.4974 77.5093 45.4066 77.5093 41.5947C77.5093 37.7826 80.6001 34.6917 84.4122 34.6917ZM59.8058 44.8751C56.4725 41.5419 51.0675 41.5419 47.7343 44.8751C44.4011 48.2083 44.4011 53.6134 47.7343 56.9466C51.0675 60.2798 56.4725 60.2798 59.8058 56.9466C63.139 53.6136 63.1392 48.2083 59.8058 44.8751ZM53.7702 67.4326C46.2612 67.4326 40.1124 73.5814 40.1124 81.0904V94.7484H67.4282V81.0904C67.428 73.5812 61.2792 67.4326 53.7702 67.4326ZM58.6038 7.75308C55.2696 4.4189 49.863 4.4189 46.529 7.75308C43.1948 11.0873 43.1948 16.4937 46.529 19.8279C49.8632 23.1621 55.2696 23.1621 58.6038 19.8279C61.938 16.4937 61.938 11.0871 58.6038 7.75308ZM55.5245 10.1029C56.0583 9.56909 56.9239 9.56909 57.4577 10.1029C57.9915 10.6367 57.9915 11.5023 57.4577 12.0361L52.0157 17.4781C51.4819 18.0119 50.6163 18.0119 50.0825 17.4781L47.6751 15.0707C47.1413 14.5369 47.1413 13.6712 47.6751 13.1375C48.2089 12.6037 49.0745 12.6037 49.6083 13.1375L51.0491 14.5783L55.5245 10.1029ZM20.7175 50.555L17.971 51.291C18.3874 51.6496 18.445 52.1466 18.5968 52.7132L25.5511 50.8498C25.3993 50.2831 25.2005 49.8238 25.3817 49.3052L20.7175 50.555ZM18.57 48.3033L23.5286 46.9746C23.2145 45.4007 22.7726 43.6375 23.4741 42.8218C24.1683 42.0148 24.6597 41.046 24.8979 40.0031C25.5313 37.23 24.2712 34.3283 21.7981 32.9003C18.6823 31.1015 14.6739 32.1705 12.8743 35.2874C10.8265 38.8343 12.5177 43.3699 16.3755 44.721C17.4001 45.08 17.8899 46.8064 18.4112 48.3456L18.57 48.3033ZM20.7226 54.9708L21.0331 56.13L25.1491 55.0271L24.8386 53.8679L20.7226 54.9708ZM17.7796 35.7515C22.7876 34.4097 24.6841 37.8041 21.9722 39.971C21.5843 40.281 21.0995 40.5714 20.5495 40.8175L21.5747 44.6435C21.7692 45.372 21.3364 46.1205 20.6081 46.315C19.8796 46.5095 19.1311 46.0769 18.9366 45.3484L17.9126 41.5265C13.7942 41.9642 12.6903 38.9523 15.0649 37.0548C15.7349 36.5197 16.6927 36.0427 17.7796 35.7515ZM13.7325 25.9275C13.538 25.199 13.9708 24.4505 14.6991 24.256C15.4274 24.0615 16.1761 24.4941 16.3706 25.2226L16.8968 27.1859C17.0913 27.9144 16.6587 28.6628 15.9302 28.8574C15.2017 29.0519 14.4532 28.6193 14.2587 27.8908L13.7325 25.9275ZM20.8847 24.0113C21.0792 23.2828 21.8276 22.85 22.5561 23.0447C23.2847 23.2392 23.7175 23.9878 23.5227 24.7162L22.6726 27.8894C22.478 28.6179 21.7294 29.0507 21.0011 28.856C20.2726 28.6615 19.8397 27.9128 20.0345 27.1845L20.8847 24.0113ZM9.60868 45.2386C10.1425 44.7048 11.0081 44.7048 11.5419 45.2386C12.0757 45.7724 12.0757 46.638 11.5419 47.1718L9.88271 48.831C9.34892 49.3648 8.48329 49.3648 7.9495 48.831C7.41571 48.2972 7.41571 47.4316 7.9495 46.8978L9.60868 45.2386ZM7.33642 39.8835C8.06493 39.689 8.81337 40.1216 9.0079 40.8501C9.20243 41.5787 8.76982 42.3271 8.0413 42.5216L4.84404 43.3783C4.11552 43.5728 3.36708 43.1402 3.17255 42.4117C2.97802 41.6832 3.41064 40.9347 4.13915 40.7402L7.33642 39.8835ZM32.2544 33.2068C32.9829 33.0123 33.7313 33.4449 33.9259 34.1734C34.1204 34.9019 33.6878 35.6503 32.9593 35.8449L29.5944 36.7464C28.8659 36.941 28.1175 36.5083 27.9229 35.7798C27.7284 35.0513 28.161 34.3029 28.8895 34.1083L32.2544 33.2068ZM8.03974 34.108C8.76825 34.3025 9.20107 35.0511 9.00634 35.7794C8.81181 36.508 8.06318 36.9408 7.33486 36.746L5.22919 36.1818C4.50068 35.9873 4.06786 35.2386 4.26259 34.5103C4.45712 33.7818 5.20575 33.349 5.93407 33.5437L8.03974 34.108ZM31.9958 40.5269C32.7243 40.7214 33.1571 41.4701 32.9624 42.1984C32.7679 42.9269 32.0192 43.3597 31.2909 43.165L28.8913 42.522C28.1628 42.3275 27.73 41.5789 27.9247 40.8505C28.1192 40.122 28.8677 39.6892 29.5962 39.8839L31.9958 40.5269ZM11.5419 29.4583C12.0757 29.9921 12.0757 30.8578 11.5419 31.3916C11.0081 31.9253 10.1425 31.9253 9.60868 31.3916L7.25165 29.0345C6.71786 28.5007 6.71786 27.6351 7.25165 27.1013C7.78544 26.5675 8.65107 26.5675 9.18486 27.1013L11.5419 29.4583Z"
    fill="white"
  />
</svg>
