<svg width="100" height="100" viewBox="0 0 100 100" fill="none" xmlns="http://www.w3.org/2000/svg">
  <path
    d="M24.4863 28.1934C31.6055 21.0742 43.1504 21.0742 50.2637 28.1934C57.3828 35.3125 57.3828 46.8516 50.2637 53.9707C43.1484 61.0898 31.6055 61.0898 24.4863 53.9707C17.3652 46.8555 17.3652 35.3125 24.4863 28.1934ZM37.375 25.1973C28.5996 25.1973 21.4902 32.3066 21.4902 41.082C21.4902 49.8574 28.5996 56.9707 37.375 56.9707C46.1504 56.9707 53.2637 49.8555 53.2637 41.082C53.2637 32.3066 46.1504 25.1973 37.375 25.1973ZM36.2012 32.3281C36.2012 31.6797 36.7266 31.1543 37.375 31.1543C38.0234 31.1543 38.5488 31.6797 38.5488 32.3281V41.082C38.5488 41.4141 38.4102 41.707 38.1953 41.9238L33.2188 46.8965C32.7656 47.3555 32.0234 47.3555 31.5625 46.8965C31.1035 46.4434 31.1035 45.7012 31.5625 45.2402L36.2012 40.5957V32.3281ZM79.9824 34.1777C75.5527 29.748 68.3672 29.748 63.9375 34.1777C59.5078 38.6074 59.5078 45.793 63.9375 50.2227C68.3672 54.6582 75.5527 54.6582 79.9824 50.2227C84.418 45.793 84.418 38.6074 79.9824 34.1777ZM60.5781 49.8066C57.3164 44.9355 57.5332 38.5176 61.0938 33.8789C60.4414 31.7246 59.5098 29.7109 58.3027 27.8105V27.8047C58.0977 27.4844 58.0586 27.0742 58.2246 26.6973L60.25 22.2285L56.2246 18.2031L51.8066 20.207C51.4473 20.3906 51.0098 20.3848 50.6504 20.1523C48.3086 18.668 45.5234 17.4785 42.8047 16.8965C42.4219 16.8184 42.0898 16.5527 41.9473 16.1602L40.2246 11.5762H34.5215L32.7988 16.1602C32.666 16.5195 32.3613 16.8027 31.957 16.8906C29.1777 17.5098 26.498 18.6289 24.1016 20.1523H24.0957C23.7754 20.3574 23.3652 20.4023 22.9883 20.2305L18.5234 18.2051L14.498 22.2305L16.502 26.6543C16.6855 27.0078 16.6797 27.4453 16.4473 27.8105C14.957 30.1582 13.7734 32.9258 13.1914 35.6504C13.1133 36.0332 12.8477 36.3652 12.4551 36.5078L7.87109 38.2305V43.9336L12.4551 45.6562C12.8145 45.7891 13.0977 46.0996 13.1855 46.498C13.8047 49.2832 14.9238 51.957 16.4473 54.3594C16.6523 54.6797 16.6973 55.0957 16.5254 55.4668L14.5 59.9355L18.5254 63.9609L22.9492 61.957C23.3027 61.7734 23.7402 61.7852 24.1055 62.0117C25.3066 62.7754 26.5742 63.4395 27.8984 63.9824V63.9883C29.1992 64.5254 30.5508 64.957 31.9453 65.2676C32.3281 65.3457 32.6602 65.6172 32.8027 66.0039L34.5254 70.5938H40.2285L41.9512 66.0039C42.084 65.6504 42.3945 65.3613 42.793 65.2734C44.752 64.8418 46.7012 64.1387 48.4961 63.2363C49.6758 57.8652 53.8438 54.6602 58.9551 53.2812C59.582 52.166 60.1231 51.0039 60.5781 49.8066ZM60.7773 80.4453C60.1406 80.3457 59.7031 79.748 59.8027 79.1113C59.8242 78.9785 59.8633 78.8516 59.9238 78.7402V66.8418C59.9238 66.1934 60.4492 65.6738 61.0977 65.6738C61.7461 65.6738 62.2715 66.1934 62.2715 66.8418V78.0742H81.6543V65.918C81.6543 65.2754 82.1738 64.75 82.8223 64.75C83.4707 64.75 83.9961 65.2754 83.9961 65.918V79.25C83.9961 79.8926 83.4707 80.418 82.8223 80.418H69.9824C75.1484 82.3438 79.7324 85.2188 83.7734 89.0664C83.918 89.2051 84.0234 89.377 84.0781 89.5527H87.6484C90.7813 89.5527 93.4121 87.0996 93.4121 83.9824V66.4102C93.4121 58.0059 86.0215 54.7949 78.2969 54.7949H77.334C75.6836 55.5039 73.8691 55.8906 71.959 55.8906C70.0547 55.8906 68.2324 55.5039 66.584 54.7949H65.6211C57.9023 54.7949 50.5059 58.0059 50.5059 66.4102V83.9844C50.5059 87.1016 53.1406 89.5547 56.2754 89.5547H80.8398C75.1211 84.5762 68.3789 81.625 60.7773 80.4453Z"
    fill="white"
  />
</svg>
