<svg width="100" height="92" viewBox="0 0 100 92" fill="none" xmlns="http://www.w3.org/2000/svg">
    <path fill-rule="evenodd" clip-rule="evenodd" d="M98.9735 3.49836C98.506 3.03087 97.8596 2.74049 97.1477 2.74049H94.5023C94.5051 2.73148 94.5077 2.72308 94.5107 2.71387C94.8475 1.6476 94.936 0.793457 93.8295 0.793457H74.4336C73.3271 0.793457 73.4156 1.6476 73.7522 2.71387C73.755 2.72288 73.7576 2.73148 73.7606 2.74049H71.1151C70.4033 2.74049 69.757 3.03087 69.2894 3.49836C68.8219 3.96586 68.5315 4.61227 68.5315 5.32412V11.1688C68.5315 13.0558 69.3026 14.7705 70.5447 16.0127C71.7869 17.2548 73.5016 18.0259 75.3886 18.0259H76.1487C77.206 20.356 78.9729 21.9908 81.8031 22.5532L81.1094 29.9096H78.193C76.5688 29.9096 75.2399 31.2385 75.2399 32.8627V35.8158H93.0229V32.8627C93.0229 31.2385 91.6941 29.9096 90.0699 29.9096H87.1532L86.4596 22.5532C89.29 21.991 91.0569 20.356 92.114 18.0259H92.874C94.7612 18.0259 96.4759 17.2548 97.7181 16.0127C98.9603 14.7705 99.7314 13.0558 99.7314 11.1688V5.32412C99.7314 4.61227 99.441 3.96606 98.9735 3.49836ZM72.5256 14.0318C71.7899 13.2962 71.3332 12.2825 71.3332 11.1688V5.54226H74.4972C74.6721 6.57531 74.6766 7.50229 74.7404 9.34406C74.7404 11.4598 74.8815 13.4498 75.2549 15.2174C74.1945 15.1821 73.2316 14.7377 72.5256 14.0318ZM96.9296 11.1688C96.9296 12.2825 96.4729 13.2962 95.7373 14.0318C95.0314 14.7377 94.0684 15.1821 93.0079 15.2174C93.3812 13.45 93.5225 11.4598 93.5225 9.34406C93.5865 7.50229 93.5909 6.57531 93.7656 5.54226H96.9296V11.1688ZM4.62613 45.8871C3.08796 48.7633 -0.789688 47.1453 0.542553 43.9239L3.90508 35.793C4.64034 34.0148 6.20693 32.9007 8.11573 32.658L13.2208 32.0086C14.2184 31.8817 15.0889 31.9161 16.0734 32.1216L19.5055 32.8383C20.2446 32.9926 20.9336 33.2239 21.5714 33.5315C22.6623 34.0575 23.2361 35.2216 22.9887 36.4073L20.3134 49.2226L26.8313 51.5851C29.6497 52.8655 31.9596 53.4107 31.7577 57.2391L31.326 65.4235C31.1789 68.2132 26.959 68.2699 26.7651 65.4825L26.2068 57.4584L12.3108 52.8535C10.6635 52.3076 9.98251 50.3812 10.3181 48.6783L12.5043 37.8517L8.90503 37.8859L4.62613 45.8871ZM15.1442 25.9643C15.1442 23.2797 17.3205 21.1033 20.0052 21.1033C22.6899 21.1033 24.8661 23.2797 24.8661 25.9643C24.8661 28.649 22.6897 30.8252 20.0052 30.8252C17.3207 30.8252 15.1442 28.6488 15.1442 25.9643ZM4.5701 76.0552H15.6163V91.2065H4.5701V76.0552ZM23.0796 70.1867H34.1258V91.2065H23.0796V70.1867ZM41.5891 62.434H52.6352V91.2063H41.5891V62.434ZM60.0986 52.6198H71.1447V91.2063H60.0986V52.6198ZM78.6082 42.1332H89.6544V91.2065H78.6082V42.1334V42.1332ZM62.9996 32.423C60.3001 34.6608 57.4931 36.7662 54.5895 38.7334C50.9942 41.1691 47.2723 43.3793 43.4446 45.353C42.7586 45.7066 41.9159 45.437 41.5622 44.751C41.2086 44.065 41.4782 43.2222 42.1642 42.8686C45.9196 40.9324 49.5465 38.7804 53.0247 36.4242C55.8739 34.4939 58.6378 32.4172 61.3055 30.1996L60.0497 30.2757C59.279 30.3211 58.6176 29.7329 58.5722 28.9624C58.5268 28.1918 59.1149 27.5303 59.8854 27.4849L65.2614 27.1593C66.1968 27.1043 66.9155 27.9724 66.7061 28.8722L65.4767 34.1159C65.3014 34.8684 64.5494 35.3365 63.7969 35.1612C63.0444 34.9858 62.5763 34.2338 62.7516 33.4813L62.9996 32.4234V32.423ZM18.5325 57.8663L18.5337 60.6476C18.5345 62.6891 17.9085 64.4571 16.5431 65.9748L10.7626 72.4007C8.44895 74.9727 4.7406 72.1619 6.84713 69.2497L11.8417 62.3447C12.4797 61.4628 12.702 60.4902 12.594 59.4069L12.2321 55.7784L18.5325 57.8663ZM36.4788 44.7366L36.4608 44.9834C36.4004 45.8117 35.7158 46.4499 34.8852 46.4521L30.1428 46.4647C28.6813 46.4685 27.5744 45.7358 26.4797 44.7678L24.4691 42.9901L25.6094 37.5282L28.8999 41.3917C29.3984 41.9771 29.9427 42.4087 30.7058 42.5038L35.0655 43.0461C35.9137 43.1516 36.5415 43.8845 36.479 44.7368L36.4788 44.7366Z" fill="white"/>
</svg>
