<svg width="100" height="100" viewBox="0 0 100 100" fill="none" xmlns="http://www.w3.org/2000/svg">
  <path
    d="M95.501 67.25L88.9229 60.7344C87.1885 59.0156 84.4072 58.9375 82.5947 60.5156L75.5479 50.0469C76.2666 49.0781 76.6572 47.8906 76.6572 46.6562C76.6572 45.1094 76.0479 43.6562 74.9541 42.5625C74.001 41.625 72.7979 41.0781 71.5635 40.9375C71.6729 40.5 71.7197 40.0469 71.7197 39.5938C71.7197 38.0469 71.1104 36.5937 70.0166 35.5C68.8135 34.3125 67.2354 33.7656 65.6729 33.8281C65.6729 33.7656 65.6729 33.6875 65.6729 33.625C65.6729 32.0781 65.0791 30.625 63.9697 29.5312C62.7822 28.3437 61.1885 27.7969 59.626 27.8594C59.6416 27.7969 59.6416 27.7188 59.6416 27.6563C59.6416 26.1094 59.0479 24.6562 57.9385 23.5625C55.6729 21.3125 51.9854 21.3125 49.7041 23.5625L48.3291 24.9062L46.9697 23.5625C45.8291 22.4375 44.3447 21.875 42.8604 21.875C41.376 21.875 39.876 22.4375 38.751 23.5625C37.8135 24.4844 37.2354 25.6562 37.0791 26.9375C35.1885 26.4687 33.0947 26.9844 31.6104 28.4531C30.5166 29.5469 29.9072 31 29.9072 32.5469V32.75C28.3447 32.6875 26.7666 33.25 25.5791 34.4219C24.4697 35.5156 23.8604 36.9687 23.8604 38.5156C23.8604 38.9688 23.9072 39.4062 24.0166 39.8438C22.7822 39.9844 21.5947 40.5313 20.6416 41.4688C19.5322 42.5625 18.9229 44.0156 18.9229 45.5625C18.9229 46.9062 19.3916 48.2031 20.2353 49.2188L16.9072 59.0781C15.1104 57.8906 12.6416 58.0781 11.0479 59.6562L4.46973 66.1719C3.5791 67.0469 3.09473 68.2031 3.09473 69.4531C3.09473 70.7031 3.5791 71.8594 4.46973 72.7344L26.3916 94.4375C27.2979 95.3438 28.501 95.7812 29.6885 95.7812C30.876 95.7812 32.0635 95.3438 32.9697 94.4375L39.5479 87.9219C40.4385 87.0469 40.9229 85.8906 40.9229 84.6406C40.9229 83.6719 40.626 82.7344 40.0635 81.9531L48.001 78.6562L57.4854 79.625L60.376 82.4688C59.501 83.3438 59.0166 84.4844 59.0166 85.7344C59.0166 86.9844 59.501 88.1406 60.3916 89.0156L66.9697 95.5156C67.876 96.4219 69.0635 96.875 70.251 96.875C71.4385 96.875 72.6416 96.4219 73.5479 95.5156L95.4697 73.8125C96.3604 72.9375 96.8447 71.7812 96.8447 70.5312C96.8447 69.2812 96.3604 68.125 95.4697 67.25H95.501ZM22.8604 43.6875H22.876C23.3916 43.1719 24.0947 42.9062 24.7822 42.9062C25.4697 42.9062 26.1416 43.1562 26.6572 43.6562C26.6729 43.6562 26.6885 43.6719 26.7041 43.6875L29.4385 46.4063C29.9541 46.9219 30.2197 47.5781 30.2197 48.2812C30.2197 48.9844 29.9541 49.6562 29.4385 50.1562C28.3916 51.2031 26.6729 51.2031 25.6104 50.1562L23.1572 47.7344L22.8604 47.4375C22.3604 46.9375 22.0791 46.2812 22.0791 45.5625C22.0791 44.8438 22.3604 44.2031 22.8604 43.6875ZM37.3916 85.7031L30.8135 92.2188C30.2041 92.8125 29.2354 92.8125 28.626 92.2188L6.7041 70.5156C6.40723 70.2188 6.25098 69.8438 6.25098 69.4531C6.25098 69.0625 6.40723 68.6719 6.68848 68.3906L13.2666 61.875C13.5791 61.5781 13.9697 61.4219 14.376 61.4219C14.7822 61.4219 15.1572 61.5781 15.4697 61.875L16.4854 62.875C16.4854 62.875 16.5479 62.9531 16.5947 63L36.2041 82.3906C36.2041 82.3906 36.3135 82.5312 36.3916 82.5938L37.3916 83.5781C37.6729 83.875 37.8291 84.25 37.8291 84.6406C37.8291 85.0312 37.6729 85.4219 37.3916 85.7031ZM37.6572 46.3594C36.6104 47.4062 34.8916 47.4062 33.8291 46.3594L31.7197 44.2656L31.6416 44.1875L28.8916 41.4688L28.8447 41.4219L27.7979 40.3906C27.2979 39.8906 27.0166 39.2188 27.0166 38.5156C27.0166 37.8125 27.2979 37.1406 27.7979 36.6406C28.3291 36.1094 29.0166 35.8594 29.7197 35.8594C30.4229 35.8594 31.1104 36.1094 31.6416 36.6406L36.6416 41.5938L37.6572 42.6094C38.1729 43.1094 38.4541 43.7812 38.4541 44.4844C38.4541 45.1875 38.1729 45.8594 37.6572 46.3594ZM42.5947 39.2969C41.5479 40.3438 39.8291 40.3438 38.7666 39.2969L33.8291 34.4219C33.3291 33.9219 33.0479 33.25 33.0479 32.5469C33.0479 31.8438 33.3291 31.1719 33.8291 30.6719C34.3604 30.1406 35.0479 29.8906 35.751 29.8906C36.4541 29.8906 37.1416 30.1406 37.6572 30.6719L41.251 34.2187L41.5166 34.4844L42.5947 35.5469C43.1104 36.0625 43.376 36.7188 43.376 37.4219C43.376 38.125 43.1104 38.7969 42.5947 39.2969ZM47.5322 32.25C46.4697 33.2969 44.7666 33.2969 43.7197 32.25L40.9541 29.5156C40.4541 29.0156 40.1729 28.3438 40.1729 27.6406C40.1729 26.9375 40.4541 26.2656 40.9541 25.7656C41.4854 25.25 42.1885 24.9844 42.876 24.9844C43.5635 24.9844 44.2666 25.25 44.7979 25.7656L47.251 28.2031L47.5322 28.4844C48.0322 28.9844 48.3135 29.6563 48.3135 30.3594C48.3135 31.0625 48.0322 31.7344 47.5322 32.2344V32.25ZM62.6104 80.2812L59.3291 77.0156C59.0635 76.7656 58.7354 76.6094 58.3916 76.5781L51.1104 75.8281L73.376 52.4063L80.3291 62.7344L62.6104 80.2812Z"
    fill="white"
  />
  <path
    d="M50 17.1875C50.8594 17.1875 51.5625 16.4844 51.5625 15.625V4.6875C51.5625 3.82812 50.8594 3.125 50 3.125C49.1406 3.125 48.4375 3.82812 48.4375 4.6875V15.625C48.4375 16.4844 49.1406 17.1875 50 17.1875Z"
    fill="white"
  />
  <path
    d="M59.3753 18.7503C59.8753 18.7503 60.3753 18.5003 60.6722 18.0472L66.9222 8.67221C67.4066 7.95346 67.2035 6.98471 66.4847 6.50033C65.766 6.01596 64.7972 6.21909 64.3128 6.93784L58.0628 16.3128C57.5785 17.0316 57.7816 18.0003 58.5003 18.4847C58.766 18.6566 59.0628 18.7503 59.3597 18.7503H59.3753Z"
    fill="white"
  />
  <path
    d="M39.3274 18.0472C39.6243 18.5003 40.1243 18.7503 40.6243 18.7503C40.9212 18.7503 41.2181 18.6722 41.4837 18.4847C42.2024 18.0003 42.3899 17.0315 41.9212 16.3128L35.6712 6.93779C35.1868 6.21904 34.2181 6.03154 33.4993 6.50029C32.7806 6.98466 32.5931 7.95341 33.0618 8.67216L39.3118 18.0472H39.3274Z"
    fill="white"
  />
</svg>
