<svg width="100" height="101" viewBox="0 0 100 101" fill="none" xmlns="http://www.w3.org/2000/svg">
    <g clip-path="url(#clip0_72_288)">
        <path fill-rule="evenodd" clip-rule="evenodd" d="M52.7945 81.0273C52.7945 81.3746 52.8059 81.716 52.8172 82.0625H50.234V53.1127C54.3438 51.0293 58.3682 48.8094 62.3014 46.4074V62.7666C59.364 64.8204 56.9658 67.5531 55.3107 70.7322C53.6556 73.9114 52.7924 77.4431 52.7945 81.0273ZM43.5447 82.0625V56.3398C39.5774 58.1727 35.5549 59.886 31.4773 61.4799V82.0625H43.5447ZM75.085 58.7365C77.1031 58.7356 79.1119 59.0095 81.0561 59.5506V34.1406C76.7869 36.7932 73.1211 39.2637 68.9887 42.0926V59.5848C70.9715 59.0201 73.0233 58.7346 75.085 58.7365ZM24.7891 82.0625V64.0018C20.7931 65.4476 16.7706 66.8064 12.7217 68.0781V82.0625H24.7891ZM11.0195 62.6066C24.51 58.44 37.841 53.4023 50.4377 47.0102C61.9074 41.1813 72.842 34.1742 82.4494 25.5904L86.7812 29.9279L89.2061 12.9254L72.2047 15.3508L76.9117 20.0578C67.8953 28.0496 57.6437 34.59 46.9141 40.0383C34.71 46.2369 21.7832 51.1094 8.71953 55.151C8.22992 55.302 7.77485 55.5479 7.3803 55.8748C6.98574 56.2017 6.65944 56.6031 6.42001 57.0561C6.18058 57.5091 6.03272 58.0048 5.98487 58.5149C5.93701 59.025 5.99011 59.5396 6.14111 60.0292C6.29212 60.5188 6.53809 60.9739 6.86496 61.3684C7.19184 61.763 7.59323 62.0893 8.04622 62.3287C8.4992 62.5681 8.99491 62.716 9.50504 62.7639C10.0152 62.8117 10.5297 62.7586 11.0193 62.6076L11.0195 62.6066ZM7.87754 24.7201L5.63477 24.1566C5.37695 22.2661 5.37695 20.3493 5.63477 18.4588L7.87754 17.8896L9.71621 17.4285C10.1337 15.6344 10.8431 13.921 11.816 12.3568L10.8426 10.7289L9.65918 8.74805C10.8142 7.22896 12.17 5.87351 13.6893 4.71875L15.6701 5.90273L17.298 6.87598C18.862 5.90114 20.5753 5.18966 22.3697 4.76992L22.8365 2.93711L23.4002 0.693554C25.2907 0.435482 27.2075 0.435482 29.098 0.693554L29.6615 2.93633L30.1225 4.76914C31.9172 5.18877 33.6308 5.90026 35.1949 6.87519L36.8229 5.90195L38.8031 4.71875C40.3238 5.872 41.6797 7.22764 42.8332 8.74805L41.6492 10.7289L40.6758 12.3568C41.6508 13.9207 42.3623 15.6341 42.782 17.4285L44.6148 17.8896L46.8576 18.4588C47.1154 20.3493 47.1154 22.2661 46.8576 24.1566L44.6148 24.7201L42.782 25.1812C42.3623 26.9757 41.6508 28.6891 40.6758 30.2529L41.6492 31.8809L42.8332 33.8617C41.682 35.3822 40.3283 36.7381 38.8098 37.8918L36.8232 36.7078L35.1949 35.7344C33.631 36.7093 31.9175 37.4207 30.123 37.8404L29.6621 39.6732L29.0986 41.916C27.2081 42.1741 25.2913 42.1741 23.4008 41.916L22.8371 39.6732L22.3703 37.8404C20.5757 37.4207 18.8621 36.7093 17.298 35.7344L15.6701 36.7076L13.6893 37.8916C12.1686 36.7381 10.8127 35.3822 9.65918 33.8615L10.8432 31.8807L11.8166 30.2527C10.8416 28.6889 10.1301 26.9755 9.71035 25.1811L7.87754 24.7201ZM13.3449 21.3049C13.3444 23.8573 14.1008 26.3526 15.5185 28.4751C16.9363 30.5976 18.9516 32.2519 21.3096 33.2289C23.6677 34.206 26.2625 34.4617 28.7659 33.9639C31.2693 33.4661 33.5688 32.237 35.3737 30.4321C37.1785 28.6273 38.4075 26.3277 38.9053 23.8243C39.4031 21.3209 39.1473 18.7261 38.1703 16.368C37.1932 14.01 35.5388 11.9947 33.4163 10.577C31.2938 9.15932 28.7985 8.40294 26.2461 8.40351C22.8259 8.40817 19.5471 9.76891 17.1287 12.1874C14.7102 14.6059 13.3495 17.8847 13.3449 21.3049ZM16.1512 21.3049C16.1518 19.3078 16.7446 17.3557 17.8546 15.6955C18.9647 14.0353 20.5421 12.7415 22.3874 11.9778C24.2327 11.2141 26.2631 11.0148 28.2217 11.405C30.1803 11.7952 31.9793 12.7574 33.391 14.17C34.8028 15.5825 35.764 17.382 36.153 19.3409C36.5421 21.2997 36.3415 23.33 35.5768 25.1748C34.812 27.0197 33.5173 28.5964 31.8565 29.7054C30.1956 30.8145 28.2432 31.4062 26.2461 31.4057C23.5688 31.4024 21.0022 30.337 19.1097 28.4432C17.2172 26.5495 16.1535 23.9822 16.152 21.3049H16.1512ZM18.6557 21.3049C18.6551 22.807 19.1 24.2755 19.9342 25.5246C20.7683 26.7738 21.9542 27.7475 23.3418 28.3226C24.7294 28.8977 26.2565 29.0483 27.7297 28.7554C29.2029 28.4625 30.5562 27.7393 31.6183 26.6771C32.6805 25.615 33.4037 24.2617 33.6966 22.7885C33.9895 21.3152 33.8389 19.7882 33.2638 18.4006C32.6887 17.013 31.715 15.8271 30.4658 14.9929C29.2167 14.1588 27.7482 13.7139 26.2461 13.7145C24.2337 13.7167 22.3044 14.5172 20.8814 15.9402C19.4584 17.3631 18.6579 19.2925 18.6557 21.3049ZM26.2461 26.09C27.1925 26.09 28.1177 25.8094 28.9046 25.2836C29.6915 24.7578 30.3048 24.0105 30.667 23.1361C31.0292 22.2617 31.1239 21.2996 30.9393 20.3713C30.7547 19.4431 30.2989 18.5905 29.6297 17.9213C28.9605 17.2521 28.1079 16.7963 27.1796 16.6117C26.2514 16.427 25.2893 16.5218 24.4149 16.884C23.5405 17.2462 22.7932 17.8595 22.2674 18.6464C21.7416 19.4333 21.4609 20.3585 21.4609 21.3049C21.4631 22.5732 21.968 23.789 22.8649 24.6858C23.7619 25.5826 24.9777 26.0873 26.2461 26.0893V26.09ZM8.09961 84.875V91.3984H55.3512C54.2741 89.353 53.5229 87.1521 53.1246 84.875H8.09961ZM88.4246 81.0273C88.4241 83.6663 87.641 86.2457 86.1745 88.4396C84.7079 90.6335 82.6237 92.3432 80.1855 93.3526C77.7472 94.362 75.0644 94.6256 72.4763 94.1103C69.8882 93.5949 67.5111 92.3237 65.6455 90.4573C63.7799 88.5909 62.5096 86.2132 61.9953 83.6249C61.481 81.0366 61.7458 78.3539 62.7561 75.9161C63.7665 73.4783 65.4771 71.3948 67.6716 69.9291C69.866 68.4635 72.4459 67.6815 75.0848 67.682C78.6224 67.686 82.014 69.0935 84.515 71.5955C87.016 74.0975 88.4221 77.4897 88.4246 81.0273ZM80.9422 82.7918L76.491 80.2246V70.2852C76.491 69.9122 76.3429 69.5545 76.0791 69.2908C75.8154 69.0271 75.4577 68.8789 75.0848 68.8789C74.7118 68.8789 74.3541 69.0271 74.0904 69.2908C73.8267 69.5545 73.6785 69.9122 73.6785 70.2852V81.0273C73.6782 81.297 73.7553 81.561 73.9008 81.788C74.0462 82.0151 74.2538 82.1956 74.4988 82.308L79.5479 85.2225C79.87 85.4047 80.2512 85.4521 80.6082 85.3542C80.9652 85.2564 81.2689 85.0213 81.4531 84.7002C81.6374 84.3791 81.687 83.9982 81.5913 83.6407C81.4956 83.2831 81.2623 82.9779 80.9424 82.7918H80.9422ZM94.5578 81.0273C94.5572 84.8793 93.4144 88.6446 91.2739 91.847C89.1334 95.0495 86.0913 97.5453 82.5323 99.0188C78.9734 100.492 75.0574 100.877 71.2796 100.125C67.5017 99.3733 64.0318 97.5179 61.3084 94.7937C58.5851 92.0696 56.7308 88.599 55.9799 84.821C55.229 81.0429 55.6153 77.127 57.0899 73.5685C58.5646 70.01 61.0613 66.9687 64.2644 64.8292C67.4676 62.6897 71.2332 61.548 75.0852 61.5486C77.6429 61.5486 80.1755 62.0525 82.5384 63.0315C84.9013 64.0104 87.0483 65.4453 88.8565 67.2542C90.6648 69.063 92.099 71.2104 93.0773 73.5736C94.0555 75.9369 94.5586 78.4696 94.5578 81.0273ZM91.2309 81.0273C91.2315 77.8331 90.2848 74.7105 88.5106 72.0544C86.7364 69.3982 84.2143 67.3279 81.2634 66.1053C78.3125 64.8826 75.0652 64.5625 71.9324 65.1855C68.7995 65.8085 65.9218 67.3466 63.6632 69.6052C61.4045 71.8638 59.8664 74.7415 59.2434 77.8744C58.6203 81.0072 58.9404 84.2545 60.163 87.2054C61.3856 90.1564 63.4559 92.6784 66.112 94.4527C68.7681 96.2269 71.8908 97.1736 75.085 97.173C79.3652 97.1673 83.4685 95.4643 86.4951 92.4377C89.5217 89.411 91.2244 85.3076 91.2301 81.0273H91.2309Z" fill="white"/>
    </g>
    <defs>
        <clipPath id="clip0_72_288">
            <rect width="100" height="100" fill="white" transform="translate(0 0.5)"/>
        </clipPath>
    </defs>
</svg>
